# xmcd
#
# Track frame offsets:
#	150
#	40585
#	65189
#	113587
#	163268
#	210054
#	239868
#	276450
#
# Disc length: 4068 seconds
#
# Revision: 0
# Processed by: cddbd v1.5.1PL2 Copyright (c) Steve Scherf et al.
# Submitted via: EasyCDDAExtractor 8.2.3.1
#
DISCID=740fe208
DTITLE=Derek Trucks Band - The Georgia Theater - Athens, GA 10-23-99 disc 1
DYEAR=1999
DGENRE=Blues
TTITLE0=Drums -> Otto
TTITLE1=Preachin' Blues
TTITLE2=Rastaman Chant
TTITLE3=Forty Four
TTITLE4=Kickin' Bach
TTITLE5=Ain't That Lovin' You
TTITLE6=Younk Funk
TTITLE7=Schoolgirl
EXTD=
EXTT0=
EXTT1=
EXTT2=
EXTT3=
EXTT4=
EXTT5=
EXTT6=
EXTT7=
PLAYORDER=
